<svg width="49" height="49" viewBox="0 0 49 49" fill="none" xmlns="http://www.w3.org/2000/svg">
<path d="M32.2143 14.2143H16.7857V0.5H32.2143V14.2143Z" fill="white"/>
<path d="M48.5 32.2143L33.5 31.7857L20.6429 18.9286C20.1695 18.4552 19.402 18.4552 18.9286 18.9286C18.4552 19.402 18.4552 20.1695 18.9286 20.6429L31.3571 33.0714L32.2143 48.5H16.7857V34.1437H26.8639V32.2143H0.5V16.7857H48.5V32.2143Z" fill="white"/>
<path d="M32.2143 14.2143H16.7857V0.5H32.2143V14.2143Z" stroke="white" stroke-linejoin="round"/>
<path d="M48.5 32.2143L33.5 31.7857L20.6429 18.9286C20.1695 18.4552 19.402 18.4552 18.9286 18.9286C18.4552 19.402 18.4552 20.1695 18.9286 20.6429L31.3571 33.0714L32.2143 48.5H16.7857V34.1437H26.8639V32.2143H0.5V16.7857H48.5V32.2143Z" stroke="white" stroke-linejoin="round"/>
</svg>
