<svg width="16" height="16" viewBox="0 0 16 16" fill="none" xmlns="http://www.w3.org/2000/svg">
<g clip-path="url(#clip0_197_692)">
<path d="M10.5189 4.64122H5.48096V0.163086H10.5189V4.64122Z" fill="#1351B4"/>
<path d="M15.8368 10.5189L10.9388 10.3789L6.7406 6.18068C6.58602 6.0261 6.33541 6.0261 6.18083 6.18068C6.02625 6.33526 6.02625 6.58587 6.18083 6.74045L10.2391 10.7987L10.519 15.8366H5.48111V11.1489H8.77195V10.5189H0.16333V5.48096H15.8368V10.5189Z" fill="#1351B4"/>
<path d="M10.5189 4.64122H5.48096V0.163086H10.5189V4.64122Z" stroke="#1351B4" stroke-width="0.326531" stroke-linejoin="round"/>
<path d="M15.8368 10.5189L10.9388 10.3789L6.7406 6.18068C6.58602 6.0261 6.33541 6.0261 6.18083 6.18068C6.02625 6.33526 6.02625 6.58587 6.18083 6.74045L10.2391 10.7987L10.519 15.8366H5.48111V11.1489H8.77195V10.5189H0.16333V5.48096H15.8368V10.5189Z" stroke="#1351B4" stroke-width="0.326531" stroke-linejoin="round"/>
</g>
<defs>
<clipPath id="clip0_197_692">
<rect width="16" height="16" fill="white"/>
</clipPath>
</defs>
</svg>
