<svg viewBox="0 0 160 160" xmlns:xlink="http://www.w3.org/1999/xlink" xmlns:dc="http://purl.org/dc/elements/1.1/" xmlns:cc="http://web.resource.org/cc/" xmlns:rdf="http://www.w3.org/1999/02/22-rdf-syntax-ns#" xmlns:svg="http://www.w3.org/2000/svg" xmlns="http://www.w3.org/2000/svg" xmlns:sodipodi="http://inkscape.sourceforge.net/DTD/sodipodi-0.dtd" xmlns:inkscape="http://www.inkscape.org/namespaces/inkscape" id="svg1355" sodipodi:version="0.32" inkscape:version="0.43" width="160" height="160" sodipodi:docbase="/home/leonardo/imagens" sodipodi:docname="SUS preto.svg" version="1.0">
  <metadata id="metadata1360">
    <rdf:RDF>
      <cc:Work rdf:about="">
        <dc:format>image/svg+xml</dc:format>
        <dc:type rdf:resource="http://purl.org/dc/dcmitype/StillImage"/>
      </cc:Work>
    </rdf:RDF>
  </metadata>
  <defs id="defs1358"/>
  <sodipodi:namedview inkscape:window-height="689" inkscape:window-width="1014" inkscape:pageshadow="2" inkscape:pageopacity="0.0" borderopacity="1.0" bordercolor="#666666" pagecolor="#ffffff" id="base" inkscape:zoom="3.225" inkscape:cx="80" inkscape:cy="80" inkscape:window-x="0" inkscape:window-y="25" inkscape:current-layer="svg1355" showguides="true" inkscape:guide-bbox="true" gridspacingx="5px" gridspacingy="5px">
    <sodipodi:guide orientation="horizontal" position="154.4186" id="guide2319"/>
    <sodipodi:guide orientation="vertical" position="5.2713178" id="guide2321"/>
    <sodipodi:guide orientation="vertical" position="155.34884" id="guide2323"/>
    <sodipodi:guide orientation="horizontal" position="4.3410853" id="guide2325"/>
  </sodipodi:namedview>
  <path style="fill:#3551af;fill-opacity:0.94117647" d="M 79.060675,5.5826832 C 68.824042,5.6061756 59.821549,5.7273694 58.168664,5.8644721 L 54.794347,6.1392116 L 55.074346,26.110837 C 55.229177,37.095386 55.360438,47.943338 55.36152,50.217689 L 55.36152,54.352902 L 77.129425,54.352902 C 89.099795,54.352902 100.08528,54.235064 101.54652,54.085202 L 104.20289,53.810466 L 104.20289,29.696573 L 104.20289,5.5826832 L 82.872928,5.5826832 C 81.589789,5.5826832 80.317808,5.5797961 79.060675,5.5826832 z M 149.25355,55.726607 C 141.79542,55.751428 127.33714,55.867202 110.851,56.036579 C 40.99733,56.754213 23.116872,56.99755 22.587623,57.297572 C 22.584345,57.300161 22.581188,57.309058 22.580444,57.311661 C 22.580696,57.312962 22.57957,57.317401 22.580444,57.318708 C 22.607192,57.342247 22.737974,57.364496 22.946593,57.389153 C 26.90574,57.857041 44.63061,59.023516 47.815988,59.023516 L 50.465179,59.023516 L 64.292681,72.697207 C 71.896779,80.220058 82.384819,90.641586 87.596971,95.85303 L 97.073769,105.32811 L 124.52056,105.06041 C 139.61625,104.91473 152.72442,104.68895 153.65451,104.55319 L 155.34884,104.30662 L 155.06885,80.108193 C 154.91469,66.906056 154.70973,56.01255 154.61655,55.75479 C 154.54091,55.727405 152.60122,55.715466 149.25355,55.726607 z M 5.5006829,57.762512 C 5.0674363,58.119878 5.30413,105.47359 5.7447819,105.90577 C 6.7321987,106.87418 43.839433,109.64522 61.198363,110.04804 C 67.795793,110.20112 97.620117,109.92662 98.071698,109.70989 C 98.075326,109.70634 98.082837,109.69968 98.086049,109.6958 C 98.467209,109.18677 95.471527,106.10987 73.460764,84.391354 L 49.955443,61.20032 L 35.912565,60.305645 C 28.186418,59.812627 18.262624,59.03738 13.864669,58.586749 C 9.4667079,58.136121 5.7091091,57.768353 5.5078627,57.762512 C 5.5061431,57.762472 5.502382,57.761111 5.5006829,57.762512 z M 99.277838,107.37106 L 100.62755,108.75182 L 101.97729,110.12552 L 102.65933,119.24837 C 103.03562,124.2636 103.53351,130.75298 103.76495,133.6688 C 103.99638,136.58463 104.19032,139.58903 104.19572,140.34714 C 104.20031,140.99273 104.27262,141.53788 104.36802,141.68563 C 104.37065,141.6895 104.37971,141.69647 104.38238,141.69972 C 104.38506,141.70276 104.38685,141.7114 104.38955,141.71381 C 104.39227,141.71602 104.40117,141.71929 104.40392,141.72085 C 104.40483,141.72122 104.41017,141.72056 104.41109,141.72085 C 104.41155,141.72092 104.41781,141.72079 104.41828,141.72085 C 104.41874,141.72062 104.42499,141.72132 104.42545,141.72085 C 104.42592,141.71991 104.42499,141.71498 104.42545,141.71381 C 104.42683,141.7096 104.43126,141.69896 104.43264,141.69267 C 104.54512,141.1212 104.63366,133.62421 104.63365,124.54596 L 104.63365,107.37106 L 101.95575,107.37106 L 99.277838,107.37106 z M 51.901054,111.82329 L 51.90824,113.52106 C 51.923743,118.46566 55.415501,153.41369 56.057925,155.05641 C 56.295307,155.66342 58.699965,155.7186 80.151944,155.61997 L 103.98751,155.50726 L 103.8511,153.17548 C 103.7764,151.89251 103.35221,147.79195 102.9106,144.05967 C 102.469,140.32741 101.68475,131.92982 101.16602,125.39836 C 100.64727,118.8669 100.1588,113.13631 100.07475,112.66865 C 99.923934,111.82962 99.597316,111.82124 75.908929,111.82329 L 51.901054,111.82329 z " id="path1364"/>
</svg>