<svg width="84" height="80" viewBox="0 0 84 80" fill="none" xmlns="http://www.w3.org/2000/svg">
<path d="M26.0544 58.2291C26.4216 58.6158 26.4216 59.2212 26.0544 59.608L24.5544 61.1197C24.3708 61.2993 24.1208 61.397 23.863 61.4009C23.6051 61.4009 23.3551 61.2954 23.1755 61.1079C22.8044 60.7212 22.8044 60.1157 23.1755 59.729L24.6872 58.229H24.6833C25.07 57.8658 25.6676 57.8658 26.0544 58.2291ZM83.2264 11.2881C83.2186 11.8818 82.9764 12.4443 82.5545 12.8584L81.9451 13.4794C81.281 14.1279 80.3904 14.4872 79.4646 14.4794C78.5388 14.4873 77.6443 14.1279 76.9841 13.4794L76.6052 13.1005L73.8161 15.8817L75.238 17.3036L75.2341 17.2997C76.2614 18.3388 76.2614 20.0106 75.2341 21.0497L73.1052 23.1786C72.2107 24.0263 70.8591 24.1708 69.8044 23.538L63.5271 29.8153L59.9529 33.4012L56.4841 36.8817L51.0739 42.2919V42.288C50.1716 43.1943 48.7927 43.4247 47.6442 42.87L45.484 45.0106C44.7184 45.8309 43.6715 46.3309 42.5543 46.409H42.2652C41.4371 46.4129 40.6246 46.1747 39.9254 45.7293L28.8164 56.8503C28.4297 57.2175 27.8203 57.2175 27.4336 56.8503C27.0664 56.4636 27.0664 55.8543 27.4336 55.4714L39.1446 43.7994C39.1915 43.7604 39.2423 43.7252 39.2931 43.6979C39.3439 43.6549 39.4025 43.6159 39.465 43.5885C39.5821 43.5377 39.7071 43.5104 39.836 43.5104C40.1056 43.5065 40.3634 43.608 40.5548 43.7994C41.0118 44.2643 41.6329 44.526 42.2853 44.526C42.9376 44.526 43.5587 44.2643 44.0158 43.7994L46.0158 41.7994L42.5549 38.2603L40.6565 40.1705C40.2698 40.5377 39.6604 40.5377 39.2737 40.1705C38.9065 39.7838 38.9065 39.1744 39.2737 38.7877L41.2737 36.7877C40.7112 35.6315 40.9495 34.2447 41.8635 33.3385L51.2424 23.9596H51.2463C51.6331 23.5925 52.2385 23.5925 52.6252 23.9596C52.9924 24.3464 52.9924 24.9518 52.6252 25.3385L45.8166 32.1471L52.1369 38.4674L54.2658 36.3268L51.8947 33.9674V33.9713C51.5276 33.5846 51.5276 32.9753 51.8947 32.5885C52.2815 32.2135 52.8986 32.2135 53.2853 32.5885L55.6447 34.9479L57.7736 32.819L55.5548 30.3698C55.297 30.2058 55.1291 29.9363 55.0978 29.6355C55.0627 29.3347 55.1681 29.0339 55.383 28.8191C55.5978 28.6042 55.8986 28.4988 56.1994 28.53C56.5002 28.5652 56.7736 28.7331 56.9338 28.9909L59.2932 31.3503L61.4221 29.2214L59.0627 26.862L59.0666 26.8581C58.6955 26.4714 58.6955 25.866 59.0666 25.4792C59.4494 25.1121 60.0588 25.1121 60.4455 25.4792L62.7541 27.7995L64.883 25.6706L62.5549 23.3503C62.1799 22.9636 62.1799 22.3464 62.5549 21.9597C62.9416 21.5926 63.5471 21.5926 63.9338 21.9597L66.2932 24.3191L68.4221 22.1902L62.1135 15.8816L55.5041 22.4832V22.4793C55.1095 22.7293 54.5939 22.6746 54.2619 22.3426C53.9298 22.0106 53.8751 21.495 54.1251 21.1004L60.7658 14.4598C60.1017 13.409 60.254 12.0418 61.1251 11.159L63.254 9.03011C63.7501 8.53402 64.4181 8.25667 65.1134 8.24886C65.8165 8.24886 66.4884 8.53011 66.9845 9.03011L68.4064 10.4598L71.1955 7.65901L70.8049 7.2801C70.1369 6.61994 69.7619 5.7176 69.7619 4.7801C69.7619 3.8426 70.1369 2.9403 70.8049 2.2801L71.426 1.67072C71.844 1.24494 72.4143 1.00667 73.008 1.00667C73.6056 1.00667 74.176 1.24494 74.5939 1.67072L82.5939 9.67073C83.0158 10.1004 83.2459 10.6865 83.2264 11.2881ZM49.5544 41.0111L50.8435 39.8002L44.5544 33.4408L43.3044 34.6908C43.0934 34.8783 42.9723 35.1517 42.9723 35.4368C42.9723 35.7181 43.0934 35.9915 43.3044 36.179L48.0544 40.929C48.2341 41.1556 48.4997 41.2923 48.7848 41.3079C49.0739 41.3236 49.3552 41.2142 49.5544 41.0111ZM71.7534 16.5811L67.7534 12.5811L65.5542 10.4092C65.4214 10.2842 65.2456 10.2099 65.0659 10.2099C64.8823 10.2099 64.7104 10.2803 64.5854 10.4092L62.4565 12.5381H62.4526C62.3159 12.6709 62.2378 12.8506 62.2378 13.0381C62.2378 13.2295 62.3159 13.4091 62.4526 13.5381L70.4018 21.4873V21.538L70.6323 21.7568V21.7607C70.9135 22.0302 71.3549 22.0302 71.6323 21.7607L73.7651 19.6279C74.0385 19.3545 74.0385 18.9052 73.7651 18.6279L71.7534 16.5811ZM75.2339 11.71L72.5542 9.03806L69.773 11.7998L72.4449 14.46L75.2339 11.71ZM81.2339 11.2803C81.2378 11.206 81.2104 11.1318 81.1557 11.081L73.1557 3.08105C73.0971 3.01074 73.0268 3.02245 72.9565 3.00292L72.9526 2.99902C72.8784 2.99902 72.8081 3.02636 72.7534 3.08105L72.1323 3.69043C71.8471 3.9834 71.687 4.37793 71.6831 4.78813C71.6792 5.20219 71.8432 5.59672 72.1323 5.88973L73.2104 6.96003L77.2104 10.96L78.2807 12.0381H78.2846C78.5776 12.3272 78.9721 12.4873 79.3823 12.4912C79.812 12.5225 80.2339 12.3819 80.5542 12.1006L81.1636 11.4795C81.2222 11.4288 81.2612 11.3584 81.2652 11.2803L81.2339 11.2803ZM21.6559 71.6783C22.4918 72.6705 22.8551 73.9791 22.6559 75.2603C22.4332 76.522 21.7106 77.6392 20.6559 78.358C20.5934 78.4244 20.527 78.483 20.4527 78.5298C18.2496 79.9751 15.398 79.9751 13.1949 78.5298C11.8511 77.6783 11.0191 76.2173 10.9644 74.6275C10.9762 73.5806 11.359 72.5651 12.0426 71.7682L16.0425 66.7682C16.23 66.5455 16.5035 66.4166 16.7925 66.4088C17.0816 66.4127 17.355 66.5416 17.5425 66.7603L21.6559 71.6783ZM20.1442 72.9088L16.8044 68.9088L13.5544 72.9479C13.1598 73.401 12.9333 73.9791 12.9138 74.5807C12.9723 75.5221 13.488 76.3776 14.2926 76.8698C15.7731 77.8385 17.6715 77.8932 19.2028 77.0104C19.2536 76.9479 19.3161 76.8971 19.3825 76.8581C20.0896 76.444 20.5817 75.7448 20.7341 74.9401C20.8435 74.2096 20.6285 73.4673 20.1442 72.9088ZM21.8239 13.0888V17.6083C21.8239 17.8739 21.7184 18.1278 21.5309 18.3153C21.3434 18.5028 21.0895 18.6083 20.8239 18.6083H18.4255V21.0106C18.4255 21.2762 18.32 21.5301 18.1325 21.7176C17.945 21.9051 17.6911 22.0106 17.4255 22.0106H12.945C12.3903 22.0106 11.945 21.5613 11.945 21.0106V18.6122L9.55437 18.6083C9.00359 18.6083 8.55437 18.163 8.55437 17.6083V13.0888C8.55437 12.538 9.00359 12.0888 9.55437 12.0888H11.9528V9.69036C11.9528 9.13567 12.402 8.69036 12.9528 8.69036H17.4762C17.7379 8.69036 17.9957 8.79583 18.1832 8.98333C18.3707 9.17083 18.4762 9.42474 18.4762 9.69036V12.0888H20.8746C21.4058 12.1161 21.8239 12.5575 21.8239 13.0888ZM19.8239 14.0888H17.4255C16.8708 14.0888 16.4255 13.6435 16.4255 13.0888V10.6904H13.9138V13.0888C13.9138 13.3544 13.8083 13.6083 13.6208 13.7958C13.4333 13.9833 13.1794 14.0888 12.9138 14.0888H10.5544V16.6591H12.9646C13.2302 16.6591 13.4841 16.7645 13.6716 16.952C13.8591 17.1395 13.9646 17.3934 13.9646 17.6591V20.0693H16.5349V17.6084C16.5349 17.0576 16.9802 16.6084 17.5349 16.6084H19.9333L19.8239 14.0888ZM29.1442 29.9008C28.6012 30.4672 27.8512 30.7875 27.0661 30.7875C26.7223 30.7914 26.3825 30.7289 26.0661 30.6078L22.277 29.2562L22.2731 29.2601C22.0231 29.1507 21.7379 29.1507 21.484 29.2601C17.0504 31.2015 11.9606 30.9398 7.75 28.5453C3.543 26.1508 0.710904 21.9125 0.117204 17.1073C-0.480456 12.3026 1.2305 7.49786 4.7266 4.15026C7.8555 1.19326 12.0938 -0.295035 16.3826 0.0486651C21.5935 0.454915 26.2381 3.48226 28.7106 8.08387C31.1872 12.6855 31.152 18.2289 28.6247 22.7989C28.5075 23.0606 28.5075 23.3575 28.6247 23.6192L29.7927 26.7989C30.2106 27.8692 29.9567 29.0844 29.1442 29.9008ZM27.9645 27.5102L26.7653 24.3305C26.445 23.5258 26.4996 22.6196 26.9137 21.8578C29.1207 17.8695 29.152 13.0336 26.9918 9.02177C24.8356 5.00617 20.7887 2.36157 16.2458 1.99837C12.4958 1.69368 8.79663 2.99837 6.06583 5.58037C2.08534 9.31477 0.776735 15.096 2.75723 20.1824C4.73773 25.2683 9.60494 28.6433 15.0662 28.7097C17.0037 28.7448 18.9256 28.3386 20.6834 27.53C21.3905 27.2019 22.199 27.1628 22.9334 27.4206L26.7264 28.7995C27.078 28.905 27.4647 28.8073 27.7225 28.5417C27.9842 28.28 28.078 27.8932 27.9647 27.5378L27.9645 27.5102Z" fill="white"/>
</svg>
