<svg width="84" height="80" viewBox="0 0 84 80" fill="none" xmlns="http://www.w3.org/2000/svg">
<path d="M9.35206 31.1325H4.28176V28.1325C4.28567 27.1286 4.87551 26.2184 5.79346 25.8044V1.0234C5.79346 0.456989 6.25049 0 6.81686 0C7.38327 0 7.84416 0.457029 7.84416 1.0234V25.8044C8.76213 26.2224 9.35196 27.1364 9.35196 28.1442L9.35206 31.1325ZM11.4615 38.1325H2.17236V41.3044H5.67236C6.22314 41.3044 6.67236 41.7536 6.67236 42.3044C6.67236 42.8552 6.22314 43.3044 5.67236 43.3044H2.17236V46.4255H5.67236C6.22314 46.4255 6.67236 46.8708 6.67236 47.4255C6.67236 47.9763 6.22314 48.4255 5.67236 48.4255H2.17236V51.5544H5.67236C6.22314 51.5544 6.67236 52.0036 6.67236 52.5544C6.67236 53.1052 6.22314 53.5544 5.67236 53.5544H2.17236V56.8044H5.67236C6.22314 56.8044 6.67236 57.2536 6.67236 57.8044C6.67236 58.3552 6.22314 58.8044 5.67236 58.8044H2.17236V62.0036H11.4615V38.1325ZM11.3833 76.8045H2.25054C1.37163 76.8162 0.668536 77.535 0.672436 78.4139V79.3162C0.676342 79.4725 0.805246 79.5975 0.961496 79.6053H12.6725C12.8287 79.5975 12.9577 79.4725 12.9616 79.3162V78.4139C12.9694 77.535 12.2622 76.8162 11.3833 76.8045ZM11.4615 34.2845C11.4654 33.9954 11.3521 33.7181 11.1451 33.515C10.9419 33.3118 10.6607 33.1986 10.3716 33.2025H3.24271C2.95365 33.1986 2.6763 33.3118 2.47318 33.515C2.27006 33.7181 2.15677 33.9954 2.16068 34.2845V36.1243H11.4498L11.4615 34.2845ZM12.9107 64.0345H0.72266C0.32813 64.0462 0.01172 64.3626 0 64.7533V67.8938C0.011719 68.2845 0.33203 68.597 0.72266 68.6048H12.9107C13.3052 68.6048 13.6216 68.2845 13.6216 67.8938V64.804C13.6411 64.6048 13.5708 64.4095 13.438 64.2611C13.3013 64.1165 13.1099 64.0345 12.9107 64.0345ZM4.91066 70.6556V74.804H8.77396V70.7024L4.91066 70.6556ZM18.9107 19.4366L15.0591 20.4952H15.063C14.7973 20.5304 14.5591 20.671 14.395 20.8858C14.2348 21.1007 14.1645 21.3702 14.2036 21.6319C14.2778 22.1866 14.7895 22.5694 15.3442 22.4952C15.4301 22.503 15.5239 22.503 15.6137 22.4952L19.4535 21.4249C20.0043 21.2764 20.3324 20.7061 20.184 20.1554C20.0316 19.6007 19.4652 19.2765 18.9106 19.4249L18.9107 19.4366ZM13.6412 15.4952C13.9771 15.4991 14.2935 15.3311 14.481 15.0538L18.1021 9.87409C18.4263 9.40925 18.313 8.77249 17.8482 8.44829C17.3834 8.12407 16.7466 8.24126 16.4224 8.7022L12.8013 13.8819C12.6411 14.1046 12.5747 14.3858 12.6255 14.6553C12.6724 14.9249 12.8325 15.1631 13.063 15.3155C13.2153 15.421 13.395 15.4835 13.5825 15.4952L13.6412 15.4952ZM55.8012 20.3741V22.3155H57.6723V20.3741C57.6723 19.8233 58.1215 19.3741 58.6723 19.3741H60.6723V17.4327H58.6723C58.1215 17.4327 57.6723 16.9874 57.6723 16.4327V14.4639H55.7426V16.4053C55.7426 16.667 55.6371 16.9248 55.4496 17.1123C55.2621 17.2998 55.0082 17.4053 54.7426 17.4053H52.7817V19.3272H54.7231V19.3233C55.0004 19.3194 55.266 19.4288 55.4613 19.628C55.6528 19.8272 55.7543 20.0967 55.7426 20.3741L55.8012 20.3741ZM50.9926 25.0655C48.8715 22.9717 47.6762 20.1163 47.6723 17.1319V11.3311V11.335C47.6762 11.003 47.9418 10.7334 48.2738 10.7256C49.809 10.5967 51.3285 10.3077 52.8011 9.85454C54.1683 9.39751 55.4534 8.72174 56.6019 7.85454L56.6722 7.80375L56.7621 7.88188C59.2269 9.63188 62.1527 10.6202 65.1723 10.7335C65.4731 10.7647 65.6996 11.0225 65.6918 11.3233V17.1436C65.6957 20.1475 64.4965 23.0303 62.3637 25.1436L61.6254 25.9132H61.6215C60.1801 27.3546 58.4848 28.5147 56.6215 29.3428C54.7582 28.5303 53.0629 27.3741 51.6215 25.9327L50.9926 25.0655ZM50.7933 20.3741C50.7933 20.6397 50.8988 20.8936 51.0863 21.0811C51.2738 21.2686 51.5277 21.3741 51.7933 21.3741H53.6722V23.3155C53.6722 23.5772 53.7777 23.835 53.9652 24.0225C54.1527 24.21 54.4066 24.3155 54.6722 24.3155H58.6722C58.9379 24.3155 59.1918 24.21 59.3793 24.0225C59.5668 23.835 59.6722 23.5772 59.6722 23.3155V21.4053H61.6722C61.9379 21.4053 62.1918 21.2998 62.3793 21.1123C62.5668 20.9248 62.6722 20.667 62.6722 20.4053V16.4053C62.6722 16.1397 62.5668 15.8858 62.3793 15.6983C62.1918 15.5108 61.9379 15.4053 61.6722 15.4053H59.6722V13.4444C59.6722 13.1788 59.5668 12.9249 59.3793 12.7374C59.1918 12.5499 58.9379 12.4444 58.6722 12.4444H54.6722C54.1215 12.4444 53.6722 12.8897 53.6722 13.4444V15.3858L51.7503 15.3819C51.1996 15.3819 50.7503 15.8311 50.7503 16.3819L50.7933 20.3741ZM37.6723 10.4249C37.7583 10.4249 37.8442 10.3897 37.9067 10.3272C37.9692 10.2647 38.0005 10.1827 38.0005 10.0929V3.89366L31.4693 10.4249L37.6723 10.4249ZM27.9731 73.2449V11.4519C27.9692 11.1785 28.0747 10.9167 28.2739 10.7253L34.395 4.60424H29.7231C27.4028 4.60424 25.5161 6.48314 25.5122 8.80344V75.4054C25.5161 77.7257 27.4028 79.6046 29.7231 79.6046H74.5941C74.9066 79.6046 75.2152 79.5734 75.5238 79.5031H34.2738C30.8168 79.4992 28.016 76.6984 28.0121 73.2453L27.9731 73.2449ZM83.3441 6.6549V73.2449C83.352 74.3621 82.9144 75.4402 82.1214 76.2332C81.3285 77.0262 80.2503 77.4637 79.1331 77.452H34.2741C33.153 77.4637 32.0749 77.0262 31.2819 76.2332C30.4929 75.4402 30.0514 74.3621 30.0631 73.2449V12.4749H37.6725C38.985 12.4671 40.0475 11.4046 40.0514 10.0921V2.4515H79.0514C80.1803 2.43197 81.2702 2.86556 82.0787 3.6546C82.8834 4.44366 83.3402 5.526 83.3441 6.6549ZM34.8911 41.2249C34.8911 41.8929 35.1607 42.5374 35.6333 43.0101C36.1099 43.4828 36.7505 43.7445 37.4224 43.7445H44.4224C45.0943 43.7523 45.7427 43.4906 46.2193 43.0179C46.6959 42.5414 46.9615 41.8968 46.9537 41.2249V39.803C46.9537 39.2522 46.5045 38.803 45.9537 38.803C45.399 38.803 44.9537 39.2522 44.9537 39.803V41.2444C44.9576 41.3733 44.9107 41.4983 44.817 41.5882C44.7272 41.6819 44.6022 41.7288 44.4732 41.7249H37.4732C37.2076 41.7249 36.9928 41.51 36.9928 41.2444V34.803C37.0045 34.5413 37.2115 34.3343 37.4732 34.3226H40.9029C41.4537 34.3226 41.9029 33.8772 41.9029 33.3226C41.9029 32.7718 41.4537 32.3226 40.9029 32.3226H37.4224C36.0435 32.3226 34.9185 33.4242 34.8912 34.8031L34.8911 41.2249ZM34.8911 51.5769V51.573C34.8911 52.1394 35.3521 52.6003 35.9184 52.6003C36.4848 52.6003 36.9418 52.1394 36.9418 51.573V49.3738C36.9536 49.1121 37.1606 48.905 37.4223 48.8933H40.8442C41.4067 48.8933 41.8676 48.4363 41.8676 47.8699C41.8676 47.3036 41.4067 46.8426 40.8442 46.8426H37.4223C36.0239 46.8426 34.8911 47.9754 34.8911 49.3738L34.8911 51.5769ZM34.8911 55.7957V55.7918C34.8911 57.1902 36.0239 58.323 37.4223 58.323H44.4223C45.0981 58.3386 45.7504 58.0769 46.2309 57.6003C46.7114 57.1277 46.977 56.4792 46.9731 55.8034V54.362C46.9731 53.8113 46.5239 53.362 45.9731 53.362C45.4184 53.362 44.9731 53.8113 44.9731 54.362V55.8034C44.977 55.9323 44.9302 56.0612 44.8403 56.1511C44.7466 56.2448 44.6216 56.2956 44.4927 56.2917H37.4927C37.3638 56.2917 37.2388 56.2409 37.1489 56.1511C37.0591 56.0573 37.0083 55.9323 37.0122 55.8034V55.6823C37.0122 55.1159 36.5552 54.6589 35.9888 54.6589C35.4224 54.6589 34.9615 55.116 34.9615 55.6823L34.8911 55.7957ZM46.9731 68.9437C46.9731 68.389 46.5239 67.9437 45.9731 67.9437C45.4184 67.9437 44.9731 68.389 44.9731 68.9437V70.3734C44.9731 70.5023 44.9263 70.6273 44.8364 70.7171C44.7466 70.8109 44.6216 70.8617 44.4927 70.8617H37.4927C37.3638 70.8617 37.2388 70.8109 37.1489 70.7171C37.0591 70.6273 37.0083 70.5023 37.0122 70.3734V63.9515C37.0239 63.6937 37.2309 63.4828 37.4927 63.4749H40.9146H40.9107C41.4653 63.4749 41.9107 63.0257 41.9107 62.4749C41.9107 61.9203 41.4653 61.4749 40.9107 61.4749H37.4224C36.024 61.4749 34.8912 62.6038 34.8912 64.0022V70.4241C34.8912 71.8186 36.024 72.9514 37.4224 72.9514H44.4224C45.8208 72.9514 46.9536 71.8186 46.9536 70.4241L46.9731 68.9437ZM48.3208 60.7445C48.1333 60.5453 47.8716 60.432 47.5982 60.432C47.3247 60.432 47.063 60.5453 46.8716 60.7445L40.8716 66.7445L40.0826 65.9437C39.6802 65.5531 39.0357 65.5648 38.649 65.9672C38.2583 66.3695 38.27 67.0141 38.6724 67.4047L40.1919 68.9242C40.3833 69.1156 40.6411 69.2249 40.9106 69.2249C41.1841 69.2249 41.4419 69.1156 41.6333 68.9242L48.3325 62.1937C48.5317 62.0023 48.6411 61.7405 48.6372 61.4671C48.6372 61.1937 48.524 60.932 48.3208 60.7445ZM48.3208 46.1626C48.1333 45.9634 47.8716 45.8501 47.5982 45.8501C47.3247 45.8501 47.063 45.9634 46.8716 46.1626L40.8716 52.1626L40.0826 51.3618C39.6841 50.9751 39.0474 50.979 38.6568 51.3774C38.2661 51.7759 38.2739 52.4126 38.6724 52.8032L40.1919 54.3227C40.3833 54.5181 40.6411 54.6235 40.9106 54.6235C41.1841 54.6235 41.4419 54.5181 41.6333 54.3227L48.3325 47.5922C48.5239 47.4047 48.6294 47.1469 48.6294 46.8774C48.6255 46.6079 48.5161 46.3501 48.3208 46.1626ZM48.3208 31.5846C48.1333 31.3854 47.8716 31.2721 47.5982 31.2721C47.3247 31.2721 47.063 31.3854 46.8716 31.5846L40.8716 37.5846L40.0826 36.7838C39.6802 36.3932 39.0357 36.4049 38.649 36.8073C38.2583 37.2096 38.27 37.8542 38.6724 38.2448L40.1724 39.8034C40.3638 39.9948 40.6216 40.1041 40.8911 40.1041C41.1841 40.1237 41.4693 40.0143 41.6724 39.8034L48.3716 33.0729C48.5786 32.8775 48.6919 32.6002 48.6802 32.3189C48.6724 32.0338 48.5396 31.7643 48.3208 31.5846ZM49.4966 26.5182L50.3052 27.3385L50.3013 27.3346C52.0201 29.0494 54.0591 30.4088 56.3013 31.3346C56.4224 31.3815 56.5513 31.4049 56.6841 31.4049C56.8169 31.4049 56.9498 31.3815 57.0709 31.3346C59.3131 30.4049 61.3521 29.0455 63.0709 27.3346L63.8091 26.5729H63.813C66.3091 24.0768 67.7153 20.694 67.7232 17.1627V11.315C67.7232 9.94388 66.6763 8.79938 65.313 8.67438C62.6802 8.57673 60.1333 7.72907 57.9732 6.22518C57.7545 6.03377 57.5435 5.8658 57.3326 5.65487C57.1412 5.44003 56.8639 5.33065 56.5826 5.35409C56.3014 5.358 56.0357 5.483 55.8521 5.69393C55.7037 5.85018 55.5396 5.99471 55.3639 6.12362L55.2154 6.24471H55.2115C54.2545 6.95955 53.192 7.51811 52.0631 7.90491C50.7428 8.31116 49.3795 8.56897 48.0006 8.67444C46.6022 8.76819 45.5162 9.92834 45.5123 11.3346V17.1354V17.1315C45.5279 20.6667 46.9615 24.0456 49.4928 26.5143L49.4966 26.5182ZM78.4966 71.8892L78.4927 71.8814C78.4927 71.6197 78.3873 71.3619 78.1998 71.1744C78.0123 70.9869 77.7583 70.8814 77.4927 70.8814H51.2037C50.649 70.8814 50.2037 71.3306 50.2037 71.8814C50.2037 72.4361 50.649 72.8814 51.2037 72.8814H77.4807C77.7542 72.8931 78.0159 72.7915 78.2073 72.6001C78.4026 72.4126 78.512 72.1548 78.512 71.8814L78.4966 71.8892ZM78.4966 66.5689L78.4927 66.565C78.4927 66.2994 78.3873 66.0455 78.1998 65.858C78.0123 65.6705 77.7583 65.565 77.4927 65.565H51.2037C50.649 65.565 50.2037 66.0103 50.2037 66.565C50.2037 67.1158 50.649 67.565 51.2037 67.565H77.4807C77.7542 67.5728 78.0159 67.4712 78.2073 67.2798C78.4026 67.0923 78.512 66.8345 78.512 66.565L78.4966 66.5689ZM78.4966 57.3072L78.4927 57.3033C78.4927 57.0377 78.3873 56.7838 78.1998 56.5963C78.0123 56.4088 77.7583 56.3033 77.4927 56.3033H51.2037C50.649 56.3033 50.2037 56.7525 50.2037 57.3033C50.2037 57.8541 50.649 58.3033 51.2037 58.3033H77.4807C77.7542 58.3111 78.0159 58.2095 78.2073 58.022C78.4026 57.8345 78.512 57.5728 78.512 57.3033L78.4966 57.3072ZM51.2036 53.0142H65.2036C65.77 53.0142 66.227 52.5533 66.227 51.9869C66.227 51.4205 65.77 50.9635 65.2036 50.9635H51.2036C50.6372 50.9635 50.1763 51.4205 50.1763 51.9869C50.1763 52.5533 50.6373 53.0142 51.2036 53.0142ZM69.3326 53.0142H77.481C78.0475 53.0142 78.5083 52.5533 78.5083 51.9869C78.5083 51.4205 78.0474 50.9635 77.481 50.9635H69.3326C68.7662 50.9635 68.3092 51.4205 68.3092 51.9869C68.3092 52.5533 68.7663 53.0142 69.3326 53.0142ZM78.5123 42.7252C78.5123 42.4596 78.4069 42.2057 78.2194 42.0182C78.0319 41.8268 77.778 41.7252 77.5123 41.7252H51.2033C50.6486 41.7252 50.2033 42.1705 50.2033 42.7252C50.2033 43.276 50.6486 43.7252 51.2033 43.7252H77.4803C77.7538 43.733 78.0155 43.6315 78.2069 43.44C78.4022 43.2525 78.5123 42.9947 78.5123 42.7252ZM78.5123 37.4049C78.5123 37.1393 78.4069 36.8854 78.2194 36.6979C78.0319 36.5104 77.778 36.4049 77.5123 36.4049H51.2033C50.6486 36.4049 50.2033 36.8502 50.2033 37.4049C50.2033 37.9557 50.6486 38.4049 51.2033 38.4049H77.4803C77.7538 38.4127 78.0155 38.3111 78.2069 38.1197C78.4022 37.9322 78.5123 37.6744 78.5123 37.4049Z" fill="white"/>
</svg>
